<svg xmlns="http://www.w3.org/2000/svg" viewBox="0 0 100 100">
  <circle cx="50" cy="50" r="46" fill="#f97316"/>
  <circle cx="50" cy="50" r="46" fill="none" stroke="#c2410c" stroke-width="4"/>
  <path d="M50 50 L50 4 A46 46 0 0 1 89.8 27 Z" fill="#fbbf24"/>
  <path d="M50 50 L89.8 27 A46 46 0 0 1 89.8 73 Z" fill="#fb7185"/>
  <path d="M50 50 L89.8 73 A46 46 0 0 1 50 96 Z" fill="#34d399"/>
  <path d="M50 50 L50 96 A46 46 0 0 1 10.2 73 Z" fill="#60a5fa"/>
  <path d="M50 50 L10.2 73 A46 46 0 0 1 10.2 27 Z" fill="#f472b6"/>
  <path d="M50 50 L10.2 27 A46 46 0 0 1 50 4 Z" fill="#a78bfa"/>
  <circle cx="50" cy="50" r="12" fill="#fff7ed" stroke="#c2410c" stroke-width="3"/>
  <text x="50" y="56.5" font-size="16" text-anchor="middle" font-family="system-ui, sans-serif">🍜</text>
</svg>
